<svg width="131" height="296" viewBox="0 0 131 296" fill="none" xmlns="http://www.w3.org/2000/svg">
<rect x="24" width="83" height="232" rx="8" fill="#00426B"/>
<circle cx="64.5" cy="42.5" r="25.5" fill="#EA0258" stroke="#515151" stroke-width="2"/>
<path d="M74 30C71.5547 28.1259 68.419 27 65 27C61.581 27 58.4453 28.1259 56 30" stroke="#EDFAFF" stroke-width="4" stroke-linecap="round"/>
<path d="M90 115C90 129.377 78.5657 141 64.5 141C50.4343 141 39 129.377 39 115C39 100.623 50.4343 89 64.5 89C78.5657 89 90 100.623 90 115Z" fill="#1C2D4B" stroke="#515151" stroke-width="2"/>
<circle cx="64.5" cy="187.5" r="25.5" fill="#1C2D4B" stroke="#515151" stroke-width="2"/>
<rect x="29" y="5" width="73" height="222" rx="6" stroke="#11557F" stroke-width="4"/>
<path d="M74 102C71.5547 100.126 68.419 99 65 99C61.581 99 58.4453 100.126 56 102" stroke="#EDFAFF" stroke-width="4" stroke-linecap="round"/>
<path d="M74 175C71.5547 173.126 68.419 172 65 172C61.581 172 58.4453 173.126 56 175" stroke="#EDFAFF" stroke-width="4" stroke-linecap="round"/>
<path d="M130.696 14.374C130.857 13.1658 129.917 12.0923 128.698 12.0923H112.862C111.748 12.0923 110.846 12.9946 110.846 14.1077V70.5384C110.846 71.6515 111.748 72.5538 112.862 72.5538H121.174C122.184 72.5538 123.038 71.8061 123.172 70.8048L130.696 14.374Z" fill="#00426B"/>
<path d="M0.304233 14.374C0.143141 13.1658 1.08306 12.0923 2.30194 12.0923H18.1385C19.2515 12.0923 20.1538 12.9946 20.1538 14.1077V70.5384C20.1538 71.6515 19.2515 72.5538 18.1385 72.5538H9.82604C8.81592 72.5538 7.96184 71.8061 7.82834 70.8048L0.304233 14.374Z" fill="#00426B"/>
<path d="M130.696 86.9277C130.857 85.7196 129.917 84.646 128.698 84.646H112.862C111.748 84.646 110.846 85.5483 110.846 86.6614V143.092C110.846 144.205 111.748 145.108 112.862 145.108H121.174C122.184 145.108 123.038 144.36 123.172 143.359L130.696 86.9277Z" fill="#00426B"/>
<path d="M0.304233 86.9277C0.143141 85.7196 1.08306 84.646 2.30194 84.646H18.1385C19.2515 84.646 20.1538 85.5483 20.1538 86.6614V143.092C20.1538 144.205 19.2515 145.108 18.1385 145.108H9.82604C8.81592 145.108 7.96184 144.36 7.82834 143.359L0.304233 86.9277Z" fill="#00426B"/>
<path d="M115 90L126 90" stroke="#11557F" stroke-width="4" stroke-linecap="round"/>
<path d="M16 90L5 90" stroke="#11557F" stroke-width="4" stroke-linecap="round"/>
<path d="M130.696 159.482C130.857 158.274 129.917 157.2 128.698 157.2H112.862C111.748 157.2 110.846 158.102 110.846 159.215V215.646C110.846 216.759 111.748 217.661 112.862 217.661H121.174C122.184 217.661 123.038 216.914 123.172 215.912L130.696 159.482Z" fill="#00426B"/>
<path d="M0.304233 159.482C0.143141 158.274 1.08306 157.2 2.30194 157.2H18.1385C19.2515 157.2 20.1538 158.102 20.1538 159.215V215.646C20.1538 216.759 19.2515 217.661 18.1385 217.661H9.82604C8.81592 217.661 7.96184 216.914 7.82834 215.912L0.304233 159.482Z" fill="#00426B"/>
<path d="M115 17L126 17" stroke="#11557F" stroke-width="4" stroke-linecap="round"/>
<path d="M16 17L5 17" stroke="#11557F" stroke-width="4" stroke-linecap="round"/>
<path d="M115 162L126 162" stroke="#11557F" stroke-width="4" stroke-linecap="round"/>
<path d="M16 162L5 162" stroke="#11557F" stroke-width="4" stroke-linecap="round"/>
<path d="M31.2991 295.34C30.0751 295.34 28.8794 295.187 27.7121 294.881C26.5447 294.575 25.4794 294.116 24.5161 293.504C23.5527 292.892 22.7594 292.127 22.1361 291.209C21.5241 290.291 21.1557 289.214 21.0311 287.979H26.1141C26.2841 288.727 26.6071 289.356 27.0831 289.866C27.5704 290.376 28.1937 290.767 28.9531 291.039C29.7237 291.311 30.6021 291.447 31.5881 291.447C32.3701 291.447 33.1124 291.334 33.8151 291.107C34.5177 290.88 35.0901 290.535 35.5321 290.07C35.9741 289.605 36.1951 289.022 36.1951 288.319C36.1951 287.48 35.8891 286.851 35.2771 286.432C34.6651 286.001 33.8321 285.661 32.7781 285.412L28.1711 284.409C26.8677 284.137 25.7287 283.718 24.7541 283.151C23.7907 282.573 23.0484 281.825 22.5271 280.907C22.0057 279.978 21.7451 278.85 21.7451 277.524C21.7451 275.994 22.1644 274.674 23.0031 273.563C23.8531 272.452 25.0034 271.602 26.4541 271.013C27.9161 270.412 29.5537 270.112 31.3671 270.112C33.4184 270.112 35.1467 270.446 36.5521 271.115C37.9687 271.772 39.0511 272.668 39.7991 273.801C40.5471 274.923 40.9267 276.175 40.9381 277.558H35.9741C35.8834 276.708 35.6227 276.028 35.1921 275.518C34.7614 274.997 34.2061 274.623 33.5261 274.396C32.8574 274.158 32.0924 274.039 31.2311 274.039C29.7464 274.039 28.6641 274.339 27.9841 274.94C27.3041 275.541 26.9641 276.238 26.9641 277.031C26.9641 277.779 27.2191 278.385 27.7291 278.85C28.2504 279.303 29.0834 279.649 30.2281 279.887L34.4951 280.805C36.0817 281.111 37.3681 281.598 38.3541 282.267C39.3401 282.924 40.0597 283.723 40.5131 284.664C40.9664 285.605 41.1931 286.659 41.1931 287.826C41.1931 289.311 40.7681 290.62 39.9181 291.753C39.0794 292.875 37.9177 293.753 36.4331 294.388C34.9484 295.023 33.2371 295.34 31.2991 295.34ZM50.8475 295V274.838H43.4185V270.418H63.0875V274.838H55.8285V295H50.8475ZM76.595 295.34C74.2717 295.34 72.26 294.836 70.56 293.827C68.8714 292.807 67.5624 291.362 66.633 289.492C65.715 287.611 65.256 285.367 65.256 282.76C65.256 280.142 65.7207 277.887 66.65 275.994C67.5907 274.101 68.911 272.645 70.611 271.625C72.311 270.594 74.3057 270.078 76.595 270.078C78.873 270.078 80.8564 270.588 82.545 271.608C84.2337 272.628 85.537 274.084 86.455 275.977C87.3844 277.87 87.849 280.131 87.849 282.76C87.849 285.355 87.39 287.594 86.472 289.475C85.5654 291.356 84.2677 292.807 82.579 293.827C80.8904 294.836 78.8957 295.34 76.595 295.34ZM76.595 291.26C77.7964 291.26 78.8334 290.977 79.706 290.41C80.59 289.832 81.27 288.925 81.746 287.69C82.222 286.443 82.46 284.823 82.46 282.828C82.46 280.777 82.2164 279.116 81.729 277.847C81.253 276.578 80.573 275.648 79.689 275.059C78.8164 274.458 77.785 274.158 76.595 274.158C75.405 274.158 74.368 274.458 73.484 275.059C72.6 275.648 71.9144 276.583 71.427 277.864C70.9397 279.133 70.696 280.788 70.696 282.828C70.696 284.834 70.9397 286.455 71.427 287.69C71.9144 288.925 72.6 289.832 73.484 290.41C74.368 290.977 75.405 291.26 76.595 291.26ZM92.2433 295V270.418H101.287C103.078 270.418 104.682 270.73 106.098 271.353C107.515 271.965 108.631 272.872 109.447 274.073C110.275 275.274 110.688 276.742 110.688 278.476C110.688 280.108 110.326 281.502 109.6 282.658C108.875 283.814 107.855 284.698 106.54 285.31C105.237 285.922 103.701 286.228 101.933 286.228H97.2413V295H92.2433ZM97.1903 282.386H101.797C103.044 282.386 104.064 281.989 104.857 281.196C105.651 280.391 106.047 279.4 106.047 278.221C106.047 276.997 105.628 276.028 104.789 275.314C103.951 274.589 102.931 274.226 101.729 274.226H97.1903V282.386Z" fill="black"/>
</svg>
